# xmcd CD database file
#
# Track frame offsets:
#	175
#	6852
#	13792
#	21100
#	27565
#	35290
#	41400
#	47627
#	52302
#	58110
#	65350
#	71127
#	76557
#	81637
#	88500
#	96295
#	102652
#	109777
#	114900
#	120627
#	127802
#	133775
#	140390
#	144927
#	152650
#	159410
#	164832
#	170715
#	176037
#	190525
#	202425
#	215787
#	225475
#	239650
#	251125
#	265587
#	277325
#	292025
#	305125
#
# Disc length: 4219 seconds
#
# Revision: 1
# Processed by: cddbd v1.5.1PL0 Copyright (c) Steve Scherf et al.
# Submitted via: CDex 1.51
#
DISCID=4d107927
DTITLE=Оркестр М.Грегора и Б.Кемпферта - Мелодии друзей 2
DYEAR=1997
DGENRE=Blues
TTITLE0=Хелло, Долли-Оркестр М.Грегора
TTITLE1=Мэкки-нож-Оркестр М.Грегора
TTITLE2=Мэйм-Оркестр М.Грегора
TTITLE3=Блюз жестяных крыш-Оркестр М.Грегора
TTITLE4=Колыбельная-Оркестр М.Грегора
TTITLE5=Сент-Луи-Блюз-Оркестр М.Грегора
TTITLE6=Нашептывая-Оркестр М.Грегора
TTITLE7=До свидания, дрозд-Оркестр М.Грегора
TTITLE8=Танцуют только жигало-Оркестр М.Грегора
TTITLE9=Блюз дикой кошки-Оркестр М.Грегора
TTITLE10=Глортленд-Оркестр М.Грегора
TTITLE11=Очи черные-Оркестр М.Грегора
TTITLE12=Вниз по реке-Оркестр М.Грегора
TTITLE13=Когда святые маршируют-Оркестр М.Грегора
TTITLE14=Увалень-Оркестр М.Грегора
TTITLE15=Ройял-Гаден-Блюз-Оркестр М.Грегора
TTITLE16=Парад на Южной Рэмперт-стрит-Оркестр М.Грегора
TTITLE17=Бал в негритянском квартале-Оркестр М.Грегора
TTITLE18=На днях-Оркестр М.Грегора
TTITLE19=Тебе пора домой, мой мальчик-Оркестр М.Грегора
TTITLE20=Ежевичный холм-Оркестр М.Грегора
TTITLE21=Ты хороша-Оркестр М.Грегора
TTITLE22=Аравийский шейх-Оркестр М.Грегора
TTITLE23=TIGER RAG (trad.)-Оркестр М.Грегора
TTITLE24=Чай для двоих-Оркестр М.Грегора
TTITLE25=Жасмин-Оркестр М.Грегора
TTITLE26=Всё, что я могу-Оркестр М.Грегора
TTITLE27=Путь далек до Типпперери-Оркестр М.Грегора
TTITLE28=Страна чудес ночью-Оркестр Б.Кемпферта
TTITLE29=Сумерки-Оркестр Б.Кемпферта
TTITLE30=Симфония-Оркестр Б.Кемпферта
TTITLE31=Каталания-Оркестр Б.Кемпферта
TTITLE32=Спящая лагуна-Оркестр Б.Кемпферта
TTITLE33=Плыть и мечтать-Оркестр Б.Кемпферта
TTITLE34=Только те влюблены-Оркестр Б.Кемпферта
TTITLE35=Как глубок океан-Оркестр Б.Кемпферта
TTITLE36=Не запрещай мне-Оркестр Б.Кемпферта
TTITLE37=Жёлтая птица-Оркестр Б.Кемпферта
TTITLE38=Доброе старое время-Оркестр Б.Кемпферта
EXTD=YEAR: 1997
EXTT0=
EXTT1=
EXTT2=
EXTT3=
EXTT4=
EXTT5=
EXTT6=
EXTT7=
EXTT8=
EXTT9=
EXTT10=
EXTT11=
EXTT12=
EXTT13=
EXTT14=
EXTT15=
EXTT16=
EXTT17=
EXTT18=
EXTT19=
EXTT20=
EXTT21=
EXTT22=
EXTT23=
EXTT24=
EXTT25=
EXTT26=
EXTT27=
EXTT28=
EXTT29=
EXTT30=
EXTT31=
EXTT32=
EXTT33=
EXTT34=
EXTT35=
EXTT36=
EXTT37=
EXTT38=
PLAYORDER=
